<?xml version="1.0" encoding="utf-8"?><svg xmlns="http://www.w3.org/2000/svg" xmlns:xlink="http://www.w3.org/1999/xlink"><symbol fill="none" viewBox="0 0 14 10" id="arrow-red" xmlns="http://www.w3.org/2000/svg"><path d="M1.101 1.573l5.08 7.257a1 1 0 001.638 0l5.08-7.257A1 1 0 0012.079 0H1.921a1 1 0 00-.82 1.573z" fill="#E73348"/></symbol><symbol fill="none" viewBox="0 0 11 20" id="facebook" xmlns="http://www.w3.org/2000/svg"><path d="M10.5 0v4h-2c-.69 0-1 .81-1 1.5V8h3v4h-3v8h-4v-8h-3V8h3V4a4 4 0 014-4h3z" fill="#4968AD"/></symbol><symbol fill="none" viewBox="0 0 21 20" id="google" xmlns="http://www.w3.org/2000/svg"><path fill-rule="evenodd" clip-rule="evenodd" d="M11.5 11V9h9v1c0 5.523-4.477 10-10 10S.5 15.523.5 10s4.477-10 10-10a9.981 9.981 0 017.817 3.763L16.754 5.01A8 8 0 1018.438 11H11.5z" fill="#E73348"/></symbol><symbol fill="none" viewBox="0 0 18 18" id="search" xmlns="http://www.w3.org/2000/svg"><path d="M17.868 16.464l-4.256-4.247c-.105-.07-.21-.14-.316-.14h-.458a7.343 7.343 0 001.794-4.775C14.632 3.3 11.326 0 7.316 0 3.271 0 0 3.3 0 7.302c0 4.037 3.271 7.302 7.316 7.302 1.83 0 3.482-.667 4.784-1.756v.457c0 .105.035.21.105.316l4.256 4.247c.176.176.457.176.598 0l.81-.807c.175-.14.175-.421 0-.597zM7.316 12.92a5.594 5.594 0 01-5.628-5.617 5.616 5.616 0 015.628-5.617c3.095 0 5.628 2.528 5.628 5.617a5.616 5.616 0 01-5.628 5.617z" fill="#311746"/></symbol><symbol fill="none" viewBox="0 0 18 14" id="slider-arrow-left" xmlns="http://www.w3.org/2000/svg"><path d="M7 1L1 7m0 0l6 6M1 7h16" stroke="#fff" stroke-width="2" stroke-linecap="round" stroke-linejoin="round"/></symbol><symbol fill="none" viewBox="0 0 18 14" id="slider-arrow-right" xmlns="http://www.w3.org/2000/svg"><path d="M11 13l6-6m0 0l-6-6m6 6H1" stroke="#fff" stroke-width="2" stroke-linecap="round" stroke-linejoin="round"/></symbol></svg>