<svg width="75" height="56" fill="none" xmlns="http://www.w3.org/2000/svg"><path d="M67.16 33.263a5.625 5.625 0 005.622-5.627 5.625 5.625 0 00-5.622-5.628 5.625 5.625 0 00-5.623 5.628 5.625 5.625 0 005.623 5.627z" fill="#E73348"/><path d="M55.231 20.262v14.76h-3.794v-1.577a5.803 5.803 0 01-4.52 2.053 7.865 7.865 0 01-5.19-2.493 7.88 7.88 0 010-10.725 7.865 7.865 0 015.19-2.492 5.798 5.798 0 014.52 2.052v-1.578h3.794zm-3.794 7.374a4.052 4.052 0 00-2.498-3.742 4.042 4.042 0 00-5.516 2.952 4.054 4.054 0 001.72 4.157 4.043 4.043 0 005.109-.504 4.052 4.052 0 001.185-2.863zM32.7 30.345l1.577 3.393a7.668 7.668 0 01-5.12 1.76 7.85 7.85 0 01-7.555-4.77 7.868 7.868 0 014.45-10.44 7.847 7.847 0 013.105-.5 7.612 7.612 0 015.12 1.76l-1.576 3.42a4.866 4.866 0 00-3.418-1.396 4.057 4.057 0 00-4.122 2.393 4.068 4.068 0 002.447 5.512c.54.177 1.11.238 1.675.18a4.838 4.838 0 003.418-1.312z" fill="#421C52"/><path d="M7.84 33.263a5.625 5.625 0 005.623-5.627 5.625 5.625 0 00-5.623-5.628 5.625 5.625 0 00-5.622 5.628 5.625 5.625 0 005.622 5.627z" fill="#E73348"/><path d="M14.16 11.479v3.798H1.604V.475H5.33v11.004h8.831z" fill="#421C52"/><path d="M67.16 15.696c4.33 0 7.84-3.514 7.84-7.848S71.49 0 67.16 0s-7.84 3.514-7.84 7.848 3.51 7.848 7.84 7.848zm-19.769-2.22a5.625 5.625 0 005.622-5.628 5.625 5.625 0 00-5.622-5.628 5.625 5.625 0 00-5.622 5.628 5.625 5.625 0 005.622 5.628z" fill="#E73348"/><path d="M35.463 7.848a7.867 7.867 0 01-4.839 7.273 7.847 7.847 0 01-8.564-1.695A7.864 7.864 0 0130.613.593a7.84 7.84 0 014.252 4.248c.395.954.598 1.975.598 3.007zm-3.808 0a4.052 4.052 0 00-2.498-3.741 4.042 4.042 0 00-5.516 2.951 4.054 4.054 0 001.72 4.157 4.043 4.043 0 005.109-.503 4.052 4.052 0 001.185-2.864zm42.159 42.201c0 3.002-2.371 5.236-6.473 5.236a11.32 11.32 0 01-6.836-2.136l1.186-3.575a8.645 8.645 0 005.231 2.08c1.758 0 3.042-.348 3.042-1.27 0-.656-.656-.894-2.623-1.229-5.497-.894-6.417-2.64-6.417-5.055 0-2.416 2.58-4.525 6.445-4.525 1.993.014 3.957.492 5.734 1.397l-1.06 3.45a9.507 9.507 0 00-4.674-1.258c-1.535 0-2.637.266-2.637.894 0 .894 1.535 1.047 3.111 1.313 5.009.838 5.971 2.806 5.971 4.678zm-20.117.949v3.77H41.071V40.065h3.879v10.934h8.747z" fill="#421C52"/><path d="M27.609 53.065a5.625 5.625 0 005.622-5.628 5.625 5.625 0 00-5.622-5.627 5.625 5.625 0 00-5.622 5.627 5.625 5.625 0 005.622 5.628zM7.84 55.285c4.33 0 7.84-3.513 7.84-7.848 0-4.334-3.51-7.848-7.84-7.848S0 43.103 0 47.437c0 4.335 3.51 7.848 7.84 7.848z" fill="#E73348"/></svg>